<svg xmlns="http://www.w3.org/2000/svg" width="105.3" height="106.1" viewBox="0 0 105.3 106.1">
  <path id="share-share-05bc80decc41686a036db7369c2baea3" d="M142.477,152.778a9.646,9.646,0,1,1,9.573-9.645,9.619,9.619,0,0,1-9.573,9.645M75.467,119.018a9.646,9.646,0,1,1,9.573-9.645,9.619,9.619,0,0,1-9.573,9.645m67.009-53.05a9.646,9.646,0,1,1-9.573,9.645,9.619,9.619,0,0,1,9.573-9.645m0,57.873a19.1,19.1,0,0,0-17.236,11.044L94.594,117.244a4.59,4.59,0,0,0-1.45-.482,19.37,19.37,0,0,0,1.469-7.388,19.08,19.08,0,0,0-.3-2.932c.091-.048.191-.063.278-.116l32.849-18.91a19,19,0,0,0,15.034,7.49,19.291,19.291,0,1,0-19.146-19.291,19.456,19.456,0,0,0,.3,2.956,2.669,2.669,0,0,0-.278.092L90.5,97.572a19,19,0,0,0-15.034-7.49,19.291,19.291,0,0,0,0,38.582,18.9,18.9,0,0,0,12.646-4.919,4.693,4.693,0,0,0,1.733,1.871l33.5,19.291a1.754,1.754,0,0,0,.168.068,19.106,19.106,0,1,0,18.959-21.133" transform="translate(-56.322 -56.323)" fill="#008cb7"/>
</svg>
