<svg xmlns="http://www.w3.org/2000/svg" width="105.3" height="106.1" viewBox="0 0 105.3 106.1">
  <g id="Group_3" data-name="Group 3" transform="translate(-112.4 -118.1)">
    <path id="Path_12" data-name="Path 12" d="M257.616,214c-1.145-2.962-2.093-5.45-3.475-9,9.991,3.159,19.074,6,28.829,9.083-4.779,8.885-9.28,17.218-14.177,26.38-1.461-3.159-2.567-5.529-3.831-8.254-18.916,9.241-23.1,26.183-24.287,45.02H221.6c.711-27.525,9.4-50.272,36.016-63.225" transform="translate(-65.269 -53.029)" fill="#008cb7"/>
    <path id="Path_13" data-name="Path 13" d="M151.615,252.292c-7.424-11.1-11.531-15.481-20.851-20.1-1.264,2.607-2.37,4.936-3.949,8.214-5.015-9.162-9.6-17.613-14.414-26.5,9.833-3,19.035-5.766,28.947-8.807-1.264,3.475-2.172,6.082-2.8,7.819,6.753,5.529,15.6,11.571,21.918,18.6a149.473,149.473,0,0,0-8.846,20.772" transform="translate(0 -52.902)" fill="#008cb7"/>
    <path id="Path_14" data-name="Path 14" d="M206.075,142.387c-3.278-.276-5.884-.474-9.675-.75,6.753-8.214,12.874-15.639,19.39-23.537,6.358,7.859,12.361,15.323,19,23.537-3.633.276-6.24.474-9.517.75,0,5.134.118,9,.079,14.019-.039,4.818.079,7.227.079,7.227a30.458,30.458,0,0,0-9.675,9.2,108.841,108.841,0,0,0-9.991-9.083c.039,0,.316-15.323.316-21.365" transform="translate(-50.423 0)" fill="#008cb7"/>
  </g>
</svg>
