<svg xmlns="http://www.w3.org/2000/svg" width="105.3" height="106.1" viewBox="0 0 105.3 106.1">
  <g id="Group_4" data-name="Group 4" transform="translate(248 -534)">
    <g id="Ellipse_5" data-name="Ellipse 5" transform="translate(-248 534)" fill="none" stroke="#008cb7" stroke-width="10">
      <ellipse cx="52.65" cy="53.05" rx="52.65" ry="53.05" stroke="none"/>
      <ellipse cx="52.65" cy="53.05" rx="47.65" ry="48.05" fill="none"/>
    </g>
    <circle id="Ellipse_6" data-name="Ellipse 6" cx="7" cy="7" r="7" transform="translate(-220.715 564.7)" fill="#008cb7"/>
    <circle id="Ellipse_7" data-name="Ellipse 7" cx="7" cy="7" r="7" transform="translate(-183.985 564.7)" fill="#008cb7"/>
    <g id="Subtraction_10" data-name="Subtraction 10" transform="translate(-220.171 596.858)" fill="#008cb7" stroke-linejoin="round">
      <path d="M 24.82113647460938 17.9995059967041 C 22.69791412353516 17.9995059967041 20.60898017883301 17.57450485229492 18.61234664916992 16.73630523681641 C 16.55362510681152 15.87203884124756 14.59454727172852 14.57130527496338 12.78952503204346 12.87021636962891 C 10.98274707794189 11.16746139526367 9.386814117431641 9.110050201416016 8.046058654785156 6.755150318145752 C 7.72083044052124 6.183915138244629 7.412553787231445 5.598502159118652 7.121676445007324 5.000005722045898 L 42.52057647705078 5.000005722045898 C 42.22969436645508 5.598504066467285 41.92142105102539 6.183909893035889 41.59619140625 6.755150318145752 C 40.25544738769531 9.110038757324219 38.65951538085938 11.16744995117188 36.85271453857422 12.8702278137207 C 35.04771423339844 14.5712947845459 33.0886344909668 15.87203884124756 31.02991485595703 16.73630523681641 C 29.03329086303711 17.57450485229492 26.9443473815918 17.9995059967041 24.82113647460938 17.9995059967041 Z" stroke="none"/>
      <path d="M 24.82112503051758 12.9995002746582 C 27.54560089111328 12.9995002746582 30.14200401306152 11.99143218994141 32.55364608764648 10 L 17.08862113952637 10 C 19.50027465820313 11.99145603179932 22.09664916992188 12.9995002746582 24.82112503051758 12.9995002746582 M 24.82112503051758 22.9995002746582 C 19.212158203125 22.9995002746582 13.86587524414063 20.75510025024414 9.360291481018066 16.50894927978516 C 7.191741466522217 14.46523380279541 5.287658214569092 12.01591682434082 3.700941801071167 9.22901725769043 C 2.094958305358887 6.408233642578125 0.8497750163078308 3.303150177001953 8.363850611203816e-06 1.373290956507844e-07 L 49.64225769042969 1.373290956507844e-07 C 48.79207611083984 3.304733514785767 47.54662322998047 6.409383296966553 45.94130706787109 9.22901725769043 C 44.35460662841797 12.01591682434082 42.45052337646484 14.46523380279541 40.28195953369141 16.50894927978516 C 35.77637481689453 20.75510025024414 30.43009185791016 22.9995002746582 24.82112503051758 22.9995002746582 Z" stroke="none" fill="#008cb7"/>
    </g>
  </g>
</svg>
