<svg xmlns="http://www.w3.org/2000/svg" width="105.3" height="106.1" viewBox="0 0 105.3 106.1">
  <g id="function-icon-3ac76656a0824d72452f998d2b50decf" transform="translate(0.611 -0.045)">
    <path id="Path_1" data-name="Path 1" d="M47.491,35.142l-6.514,26.8q-4.566,18.97-8.908,27.5t-10.16,12.617a22.608,22.608,0,0,1-13.334,4.089q-4.732,0-6.959-1.885A5.665,5.665,0,0,1-.611,99.823,5.485,5.485,0,0,1,1.227,95.7a6.754,6.754,0,0,1,4.844-1.74A5.2,5.2,0,0,1,9.91,95.3a4.563,4.563,0,0,1,1.336,3.364,3.941,3.941,0,0,1-.834,2.756q-.835.9-.834,1.19l.277.406a1.147,1.147,0,0,0,.779.289,3.987,3.987,0,0,0,2.839-1.1,16.846,16.846,0,0,0,4.4-6.613q1-2.667,3.84-14.1L28.165,55.15l4.9-20.009H25.331l1.838-6.788q4.176.059,6.067-1.1t4.008-5.221Q43.366,10.253,50.159,5.15A24.606,24.606,0,0,1,65.3.045q5.344,0,7.766,2.146a7.092,7.092,0,0,1,2.421,5.57,6.824,6.824,0,0,1-1.615,4.786,5.2,5.2,0,0,1-4.008,1.77,4.978,4.978,0,0,1-3.675-1.449,4.749,4.749,0,0,1-1.448-3.481,6.285,6.285,0,0,1,.918-3.075,5.963,5.963,0,0,0,.918-2.2,1.385,1.385,0,0,0-.418-1.043,1.5,1.5,0,0,0-1.085-.406q-3.284,0-6.736,4.235-5.678,6.787-9.131,21.464h8.072l-1.948,6.788H47.491Z" transform="translate(0 0)" fill="#008cb7"/>
    <path id="Path_2" data-name="Path 2" d="M36.736,16.468,56.4,13.521a45.9,45.9,0,0,1,7.55,16.105,121.875,121.875,0,0,1,8.339-9.968,24.7,24.7,0,0,1,6.225-4.985,12.111,12.111,0,0,1,5.212-1.153,6.957,6.957,0,0,1,4.762,1.473,5.054,5.054,0,0,1,1.662,3.977,4.96,4.96,0,0,1-1.662,3.855,5.954,5.954,0,0,1-4.141,1.5,17.835,17.835,0,0,1-4.141-.565,16.675,16.675,0,0,0-3.241-.565,7.828,7.828,0,0,0-4.508,1.473q-2.931,2.014-7.212,8.593,4.789,14.73,7.662,17.972a4.713,4.713,0,0,0,3.437,1.916,4.854,4.854,0,0,0,2.535-.639A27.08,27.08,0,0,0,83.9,47.356l2.029,1.031q-4.959,6.972-9.691,9.82a13.533,13.533,0,0,1-7.1,2.209,11.732,11.732,0,0,1-6-1.4,12.33,12.33,0,0,1-4.254-4.567,66.437,66.437,0,0,1-4.395-10.14q-6.592,7.316-10.339,10.68a24.313,24.313,0,0,1-6.225,4.395,13.662,13.662,0,0,1-5.3,1.032,6.907,6.907,0,0,1-4.648-1.473,4.806,4.806,0,0,1-1.719-3.83,5.229,5.229,0,0,1,1.86-4.125,6.941,6.941,0,0,1,4.733-1.621,9.181,9.181,0,0,1,3.437.786,12.381,12.381,0,0,0,4.056,1.178,6.983,6.983,0,0,0,2.929-.59,16.686,16.686,0,0,0,4.283-3.191q1.578-1.521,5.8-6.481Q47.948,23.588,44.9,20.152a6.136,6.136,0,0,0-4.846-2.209,21.769,21.769,0,0,0-3.719.392Z" transform="translate(14.538 37.386)" fill="#008cb7"/>
  </g>
</svg>
