<svg xmlns="http://www.w3.org/2000/svg" width="105.3" height="106.1" viewBox="0 0 105.3 106.1">
  <path id="skill-reuse" d="M99.042,191.109c.874-4.38,1.148-14.818.874-19.534-1.949-34.086-31.994-50.814-53.308-43.835,16.047,7.177,32.368,26.728,32.488,49.885A67.758,67.758,0,0,1,78.609,186l-17.228-2.341,11.167,16.694,11.161,16.7L98.12,205.187l14.412-11.85ZM20.676,165.972c-.968,4.337-1.435,14.775-1.262,19.491C20.689,219.609,50.4,237.3,71.84,231.028c-15.907-7.71-31.834-27.778-31.5-50.926a68.086,68.086,0,0,1,.654-8.347l17.175,2.874L47.343,157.591,36.516,140.527,21.877,151.9,7.232,163.3Z" transform="translate(-7.232 -126.177)" fill="#008cb7"/>
</svg>
