<?xml version="1.0" encoding="utf-8"?>
<!-- Generator: Adobe Illustrator 19.0.0, SVG Export Plug-In . SVG Version: 6.00 Build 0)  -->
<svg version="1.1" id="Layer_1" xmlns="http://www.w3.org/2000/svg" xmlns:xlink="http://www.w3.org/1999/xlink" x="0px" y="0px"
	 viewBox="0 0 960 560" style="enable-background:new 0 0 960 560;" xml:space="preserve">
<style type="text/css">
	.st0{fill:#444444;}
	.st1{fill:none;stroke:#008CB7;stroke-width:6.6005;stroke-miterlimit:10;}
	.st2{fill:none;stroke:#008CB7;stroke-width:11.5845;stroke-linecap:square;stroke-miterlimit:10;}
</style>
<g id="XMLID_1_">
	<path id="XMLID_468_" class="st0" d="M290.5,276.3c-1.1,1-2.3,1-3.5,0.2c-1.1-1-2.3-1.8-3.5-2.6c-1.5-1.1-2.9-2-4.4-2.8
		c-4.2-2.2-8.5-3.8-13.1-4.8c-3.4-0.6-6.3-1-8.6-1.1H255h-2.4c-0.9,0-1.8,0.1-2.8,0.2h-1.1l-1.1,0.2c-3.9,0.5-7.2,1.3-9.7,2.4
		c-3.3,1.2-5.9,2.9-7.9,5.1c-2.2,2.1-3.7,4.8-4.6,8.1l-0.4,1.3l-0.2,1.3c-0.1,1.2-0.2,2.1-0.2,2.8l-0.2,1.5v-0.4v0.2l0.2,0.6v0.9
		v1.7l0.4,1.1c0,0.2,0.1,0.5,0.2,0.9l0.4,1.3l0.4,1.1l0.6,1.1l0.6,1.1l0.7,1.1l0.9,1.1l0.9,1.1c2.3,2.6,5.6,5.1,9.7,7.5
		c3.2,1.8,7.5,4,12.9,6.4l1.8,0.7l2,0.9l3.5,1.7l7,2.9c5.8,2.7,10.6,5.3,14.5,7.7c5.6,3.6,10.2,7.4,13.6,11.6
		c4.4,5,7.2,10.7,8.5,16.9l0.6,2.4c0.1,1,0.2,1.8,0.2,2.4l0.2,2.2v1.3v0.7v0.6v0.9v0.9c-0.1,0.7-0.2,1.4-0.2,2l-0.4,2.4l-0.4,2.4
		c-1.2,6.1-3.7,11.6-7.3,16.4c-3.6,4.5-8,8.2-13.2,10.8c-4.2,2.2-8.9,3.9-14.3,5c-5.2,1-9.6,1.5-13.4,1.7h-1.7h-0.7h-0.7h-0.4
		l-2.8-0.2c-0.7,0-1.7-0.1-2.9-0.2H244l-1.5-0.2c-3.4-0.5-7.2-1.2-11.2-2.2c-5.9-1.7-11.5-4.1-16.9-7.2c-2.6-1.4-4.9-2.8-7-4.4
		c-1.6-1.2-3.1-2.4-4.4-3.5c-1.4-1.2-1.4-2.5,0-3.9l8.8-8.5c1.1-1.1,2.3-1.2,3.5-0.2c0.9,0.9,1.8,1.7,2.9,2.4
		c1.5,1.1,3.1,2.1,4.8,3.1c4.2,2.3,8.5,4.1,12.9,5.3c3.2,0.9,6,1.5,8.5,1.8l1.1,0.2h1.1c0.9,0.1,1.7,0.2,2.6,0.2l2.8,0.2h0.4h0.7
		l1.3-0.2c2.8,0,6.3-0.3,10.5-0.9c3.9-0.9,7.2-2,9.9-3.5c6.6-3.3,10.6-8.5,11.9-15.6l0.2-1.3l0.2-1.1c0.1-0.4,0.2-0.9,0.2-1.7v-0.9
		v-0.9l0.2-0.6v-0.2v-0.2c0,0.4,0,0.5,0,0.4l-0.2-0.7v-1.3c0-0.4-0.1-0.9-0.2-1.5l-0.2-1.3c-0.7-3.6-2.3-6.8-4.8-9.7
		c-4.2-4.9-11.6-9.9-22.4-14.9l-7.2-3.1l-3.5-1.7l-1.5-0.7l-1.8-0.7c-6-2.7-10.9-5.1-14.5-7.4c-5.6-3.3-10.2-6.9-13.8-10.8
		c-0.5-0.5-1-1.1-1.5-1.8l-1.5-1.8c-1.1-1.7-1.9-3.1-2.4-4.2l-1.1-2.2c-0.4-0.9-0.6-1.6-0.7-2.2c-0.6-2-1-3.6-1.3-5l-0.4-2.6v-1.7
		l-0.2-0.9v-0.5v-0.2V288v-0.2l0.2-2.2c0-1.1,0.1-2.5,0.4-4.2l0.4-2.2l0.6-2.2c1.6-6,4.5-11.1,8.6-15.3c3.7-3.7,8.2-6.6,13.6-8.8
		c3.9-1.5,8.5-2.6,13.6-3.3h1.8l1.7-0.2c1.2-0.1,2.2-0.2,2.9-0.2h2.9h3.1c3.2,0.1,6.9,0.6,11.2,1.5c6,1.4,11.8,3.5,17.3,6.4
		c2.1,1.1,4,2.3,5.9,3.5c1.3,1,2.7,2,4,3.1c0.4,0.2,0.9,0.7,1.5,1.3c1.3,1.2,1.3,2.5,0,3.7L290.5,276.3z"/>
	<path id="XMLID_465_" class="st0" d="M514,266.5c-1.7,0-2.6-0.9-2.6-2.6v-12.1c0-1.7,0.9-2.6,2.6-2.6h61.9c1.7,0,2.6,0.9,2.6,2.6
		v12.1c0,1.7-0.9,2.6-2.6,2.6H514z M532.9,409.3c-1.6,0-2.4-0.9-2.4-2.6V193.5c0-9.3,2-17.5,5.9-24.6c3.9-7.2,9.4-12.6,16.5-16.2
		c6.6-3.3,13.7-4.5,21.3-3.7c7.6,0.7,14.9,3.5,21.9,8.3c1.5,1,1.7,2.2,0.6,3.7l-7.3,9.7c-1,1.4-2.2,1.5-3.5,0.6
		c-8.9-5.9-17.3-6.9-25.2-3.1c-8.6,4.4-12.9,12.9-12.9,25.4v213.2c0,1.7-0.9,2.6-2.6,2.6H532.9z"/>
	<path id="XMLID_462_" class="st0" d="M627.7,386c-15.7-15.7-23.5-34.6-23.5-56.6c0-22.4,7.5-41.4,22.6-56.8
		c14.9-15.4,33.3-23.1,55-23c21.1,0.1,39.1,7.9,54,23.3c14.8,15.3,22.2,33.7,22.2,55.1v4c0,1.5-0.7,2.3-2.2,2.4l-132,11.6
		c3.7,13.4,11,24.3,22.1,32.9c11.3,8.7,24,13.1,38.2,13.1c10.8,0,20.9-2.6,30.3-7.9c9.3-5.1,16.8-12.3,22.6-21.3
		c0.9-1.5,2-1.8,3.5-0.9l10.7,6.1c1.5,1,1.8,2.2,0.9,3.7c-7.4,11.6-17.1,20.8-29.2,27.6c-12,6.7-24.9,10.1-38.8,10.1
		C662.1,409.3,643.2,401.6,627.7,386z M638.9,284.5c-11.4,11.9-17.2,26.7-17.3,44.3l118.6-10.3c-1.7-15.2-8-27.6-18.9-37.1
		c-10.9-9.7-24.3-14.5-40.1-14.5C664.3,266.9,650.2,272.8,638.9,284.5z"/>
	<path id="XMLID_461_" class="st1" d="M396.8,366l0.3,11.1c0,2.8,2.5,5.2,5.5,5.2h0c3,0,5.5-2.3,5.5-5.2l0-11c2.1-1.6,3.4-4.2,3.4-7
		c0-4.9-4-9-9-9c-4.9,0-9,4-9,9C393.5,361.8,394.8,364.3,396.8,366z"/>
	<g id="XMLID_458_">
		<path id="XMLID_460_" class="st2" d="M452.3,312.7v-13.4c0-31.4-21-50-46.4-50c-25.6,0-46.4,18.6-46.4,47.1"/>
		<path id="XMLID_459_" class="st2" d="M346.9,341.9v39.4c0,13.2,10.8,24,24,24H440c11.8,0,21.5-9.7,21.5-21.5v-44.7
			c0-6.6-5.3-11.9-11.9-11.9l-87.9-0.1C353.5,327,346.9,333.7,346.9,341.9z"/>
	</g>
</g>
</svg>
